<?xml version="1.0" encoding="UTF-8"?>
<!DOCTYPE svg PUBLIC "-//W3C//DTD SVG 1.1//EN" "http://www.w3.org/Graphics/SVG/1.1/DTD/svg11.dtd">
<!-- Creator: CorelDRAW X8 -->
<svg xmlns="http://www.w3.org/2000/svg" xml:space="preserve" width="98mm" height="68mm" version="1.1" style="shape-rendering:geometricPrecision; text-rendering:geometricPrecision; image-rendering:optimizeQuality; fill-rule:evenodd; clip-rule:evenodd"
viewBox="0 0 9800 6800"
 xmlns:xlink="http://www.w3.org/1999/xlink">
 <defs>
  <style type="text/css">
   <![CDATA[
    .str0 {stroke:#2B2A29;stroke-width:50}
    .str1 {stroke:#2B2A29;stroke-width:10}
    .str2 {stroke:#2B2A29;stroke-width:7.62}
    .fil4 {fill:none}
    .fil1 {fill:none;fill-rule:nonzero}
    .fil2 {fill:#FEFEFE;fill-rule:nonzero}
    .fil3 {fill:#2B2A29;fill-rule:nonzero}
    .fil0 {fill:#2B2A29;fill-rule:nonzero}
   ]]>
  </style>
 </defs>
 <g id="Слой_x0020_1">
  <metadata id="CorelCorpID_0Corel-Layer"/>
  <g id="_2566996117712">
   <path class="fil0" d="M2779 3372l0 702c0,36 -7,63 -22,81 -14,18 -26,27 -35,27 -9,0 -26,0 -52,0l-473 0c-36,0 -62,-6 -78,-19 -17,-12 -26,-23 -28,-32 -1,-9 -2,-23 -2,-41l0 -718 -1327 0c-40,0 -69,-7 -87,-21 -18,-15 -27,-26 -27,-33 0,-7 0,-25 0,-54l0 -571 1354 -2256c32,-44 56,-67 70,-71l22 0c7,0 16,3 25,8 9,6 15,8 19,8l179 77 158 65c50,18 76,43 76,76 0,14 -7,36 -22,65l-1272 2164 832 0 87 -876c3,-29 6,-48 8,-59 2,-11 12,-22 30,-33 18,-11 43,-16 76,-16l380 0c73,0 109,38 109,114l0 870 305 0c7,0 18,0 32,0 15,0 25,0 30,0 6,0 13,2 22,5 9,4 14,10 16,19 2,9 5,23 8,41 4,18 6,40 6,65l0 305 0 21c0,11 0,18 0,22 0,4 -1,10 -3,19 -2,9 -5,16 -11,19 -5,4 -13,8 -22,14 -9,5 -20,9 -32,11 -13,1 -28,2 -46,2l-305 0z"/>
   <path id="1" class="fil0" d="M6199 2274c0,359 -37,668 -109,927 -73,259 -173,458 -302,595 -129,138 -264,237 -408,297 -143,59 -300,89 -470,89 -170,0 -327,-30 -470,-89 -143,-60 -279,-159 -408,-297 -128,-137 -229,-336 -302,-595 -72,-259 -108,-568 -108,-927 0,-301 27,-567 81,-799 55,-232 124,-416 207,-552 83,-136 184,-247 302,-334 117,-87 232,-146 345,-177 112,-30 230,-46 353,-46 123,0 241,16 353,46 113,31 228,90 346,177 117,87 218,198 301,334 84,136 153,320 207,552 54,232 82,498 82,799zm-1612 1207c85,76 193,114 323,114 131,0 238,-38 324,-114 85,-76 145,-187 182,-332 36,-145 60,-281 73,-410 13,-129 19,-284 19,-465 0,-181 -6,-336 -19,-465 -13,-128 -37,-265 -73,-410 -37,-145 -97,-256 -182,-332 -86,-76 -193,-114 -324,-114 -130,0 -238,38 -323,114 -85,76 -146,187 -182,332 -37,145 -61,282 -74,410 -12,129 -19,284 -19,465 0,181 7,336 19,465 13,129 37,265 74,410 36,145 97,256 182,332z"/>
   <path id="2" class="fil0" d="M8634 3372l0 702c0,36 -7,63 -22,81 -14,18 -26,27 -35,27 -9,0 -26,0 -52,0l-473 0c-36,0 -62,-6 -79,-19 -16,-12 -25,-23 -27,-32 -2,-9 -2,-23 -2,-41l0 -718 -1327 0c-40,0 -69,-7 -87,-21 -18,-15 -27,-26 -27,-33 0,-7 0,-25 0,-54l0 -571 1354 -2256c32,-44 56,-67 70,-71l22 0c7,0 15,3 24,8 9,6 16,8 19,8l180 77 158 65c50,18 76,43 76,76 0,14 -8,36 -22,65l-1272 2164 832 0 87 -876c3,-29 6,-48 8,-59 1,-11 11,-22 30,-33 18,-11 43,-16 76,-16l380 0c73,0 109,38 109,114l0 870 304 0c8,0 18,0 33,0 14,0 24,0 30,0 5,0 13,2 22,5 9,4 14,10 16,19 2,9 4,23 8,41 4,18 6,40 6,65l0 305 0 21c0,11 0,18 0,22 0,4 -1,10 -3,19 -2,9 -6,16 -11,19 -6,4 -13,8 -22,14 -9,5 -20,9 -32,11 -13,1 -29,2 -47,2l-304 0z"/>
   <path id="3" class="fil1 str0" d="M2779 3372l0 702c0,36 -7,63 -22,81 -14,18 -26,27 -35,27 -9,0 -26,0 -52,0l-473 0c-36,0 -62,-6 -78,-19 -17,-12 -26,-23 -28,-32 -1,-9 -2,-23 -2,-41l0 -718 -1327 0c-40,0 -69,-7 -87,-21 -18,-15 -27,-26 -27,-33 0,-7 0,-25 0,-54l0 -571 1354 -2256c32,-44 56,-67 70,-71l22 0c7,0 16,3 25,8 9,6 15,8 19,8l179 77 158 65c50,18 76,43 76,76 0,14 -7,36 -22,65l-1272 2164 832 0 87 -876c3,-29 6,-48 8,-59 2,-11 12,-22 30,-33 18,-11 43,-16 76,-16l380 0c73,0 109,38 109,114l0 870 305 0c7,0 18,0 32,0 15,0 25,0 30,0 6,0 13,2 22,5 9,4 14,10 16,19 2,9 5,23 8,41 4,18 6,40 6,65l0 305 0 21c0,11 0,18 0,22 0,4 -1,10 -3,19 -2,9 -5,16 -11,19 -5,4 -13,8 -22,14 -9,5 -20,9 -32,11 -13,1 -28,2 -46,2l-305 0z"/>
   <path id="4" class="fil1 str0" d="M6199 2274c0,359 -37,668 -109,927 -73,259 -173,458 -302,595 -129,138 -264,237 -408,297 -143,59 -300,89 -470,89 -170,0 -327,-30 -470,-89 -143,-60 -279,-159 -408,-297 -128,-137 -229,-336 -302,-595 -72,-259 -108,-568 -108,-927 0,-301 27,-567 81,-799 55,-232 124,-416 207,-552 83,-136 184,-247 302,-334 117,-87 232,-146 345,-177 112,-30 230,-46 353,-46 123,0 241,16 353,46 113,31 228,90 346,177 117,87 218,198 301,334 84,136 153,320 207,552 54,232 82,498 82,799zm-1612 1207c85,76 193,114 323,114 131,0 238,-38 324,-114 85,-76 145,-187 182,-332 36,-145 60,-281 73,-410 13,-129 19,-284 19,-465 0,-181 -6,-336 -19,-465 -13,-128 -37,-265 -73,-410 -37,-145 -97,-256 -182,-332 -86,-76 -193,-114 -324,-114 -130,0 -238,38 -323,114 -85,76 -146,187 -182,332 -37,145 -61,282 -74,410 -12,129 -19,284 -19,465 0,181 7,336 19,465 13,129 37,265 74,410 36,145 97,256 182,332z"/>
   <path id="5" class="fil1 str0" d="M8634 3372l0 702c0,36 -7,63 -22,81 -14,18 -26,27 -35,27 -9,0 -26,0 -52,0l-473 0c-36,0 -62,-6 -79,-19 -16,-12 -25,-23 -27,-32 -2,-9 -2,-23 -2,-41l0 -718 -1327 0c-40,0 -69,-7 -87,-21 -18,-15 -27,-26 -27,-33 0,-7 0,-25 0,-54l0 -571 1354 -2256c32,-44 56,-67 70,-71l22 0c7,0 15,3 24,8 9,6 16,8 19,8l180 77 158 65c50,18 76,43 76,76 0,14 -8,36 -22,65l-1272 2164 832 0 87 -876c3,-29 6,-48 8,-59 1,-11 11,-22 30,-33 18,-11 43,-16 76,-16l380 0c73,0 109,38 109,114l0 870 304 0c8,0 18,0 33,0 14,0 24,0 30,0 5,0 13,2 22,5 9,4 14,10 16,19 2,9 4,23 8,41 4,18 6,40 6,65l0 305 0 21c0,11 0,18 0,22 0,4 -1,10 -3,19 -2,9 -6,16 -11,19 -6,4 -13,8 -22,14 -9,5 -20,9 -32,11 -13,1 -29,2 -47,2l-304 0z"/>
   <path class="fil2" d="M2938 3245l0 702c0,36 -7,63 -22,81 -14,18 -26,27 -35,27 -9,0 -26,0 -52,0l-473 0c-36,0 -62,-6 -79,-19 -16,-12 -25,-23 -27,-32 -2,-9 -2,-23 -2,-41l0 -718 -1327 0c-40,0 -69,-7 -87,-21 -18,-15 -27,-26 -27,-33 0,-7 0,-25 0,-54l0 -571 1354 -2256c32,-44 56,-67 70,-71l22 0c7,0 15,3 24,8 9,6 16,8 19,8l180 77 157 65c51,18 77,43 77,76 0,14 -8,36 -22,65l-1272 2164 832 0 86 -876c4,-29 7,-48 9,-59 1,-11 11,-22 30,-33 18,-11 43,-16 76,-16l380 0c73,0 109,38 109,114l0 870 304 0c8,0 18,0 33,0 14,0 24,0 30,0 5,0 13,2 22,5 9,4 14,10 16,19 2,9 4,23 8,41 4,18 5,40 5,65l0 305 0 21c0,11 0,18 0,22 0,4 0,10 -2,19 -2,9 -6,16 -11,19 -6,4 -13,8 -22,14 -9,5 -20,9 -32,11 -13,1 -29,2 -47,2l-304 0z"/>
   <path id="1" class="fil2" d="M6357 2147c0,359 -36,668 -108,927 -73,259 -174,458 -302,595 -129,138 -265,237 -408,297 -143,59 -300,89 -470,89 -170,0 -327,-30 -470,-89 -143,-60 -279,-159 -408,-297 -129,-137 -229,-336 -302,-595 -72,-259 -108,-568 -108,-927 0,-301 27,-567 81,-799 54,-232 123,-416 207,-552 83,-136 184,-247 301,-334 118,-87 233,-146 346,-177 112,-30 230,-46 353,-46 123,0 241,16 353,46 113,31 228,90 345,177 118,87 219,198 302,334 84,136 152,320 207,552 54,232 81,498 81,799zm-1612 1207c86,76 193,114 324,114 130,0 238,-38 323,-114 86,-76 146,-187 182,-332 37,-145 61,-281 74,-410 13,-129 19,-284 19,-465 0,-181 -6,-336 -19,-465 -13,-128 -37,-265 -74,-410 -36,-145 -96,-256 -182,-332 -85,-76 -193,-114 -323,-114 -131,0 -238,38 -324,114 -85,76 -145,187 -182,332 -36,145 -60,282 -73,410 -13,129 -19,284 -19,465 0,181 6,336 19,465 13,129 37,265 73,410 37,145 97,256 182,332z"/>
   <path id="2" class="fil2" d="M8793 3245l0 702c0,36 -8,63 -22,81 -15,18 -26,27 -35,27 -9,0 -27,0 -52,0l-473 0c-36,0 -63,-6 -79,-19 -16,-12 -25,-23 -27,-32 -2,-9 -3,-23 -3,-41l0 -718 -1326 0c-40,0 -69,-7 -87,-21 -18,-15 -27,-26 -27,-33 0,-7 0,-25 0,-54l0 -571 1353 -2256c33,-44 56,-67 71,-71l22 0c7,0 15,3 24,8 9,6 16,8 19,8l180 77 157 65c51,18 76,43 76,76 0,14 -7,36 -21,65l-1272 2164 831 0 87 -876c4,-29 7,-48 8,-59 2,-11 12,-22 30,-33 18,-11 44,-16 76,-16l381 0c72,0 109,38 109,114l0 870 304 0c7,0 18,0 33,0 14,0 24,0 30,0 5,0 12,2 21,5 9,4 15,10 17,19 1,9 4,23 8,41 3,18 5,40 5,65l0 305 0 21c0,11 0,18 0,22 0,4 -1,10 -2,19 -2,9 -6,16 -11,19 -6,4 -13,8 -22,14 -9,5 -20,9 -33,11 -12,1 -28,2 -46,2l-304 0z"/>
   <path id="3" class="fil1 str0" d="M2938 3245l0 702c0,36 -7,63 -22,81 -14,18 -26,27 -35,27 -9,0 -26,0 -52,0l-473 0c-36,0 -62,-6 -79,-19 -16,-12 -25,-23 -27,-32 -2,-9 -2,-23 -2,-41l0 -718 -1327 0c-40,0 -69,-7 -87,-21 -18,-15 -27,-26 -27,-33 0,-7 0,-25 0,-54l0 -571 1354 -2256c32,-44 56,-67 70,-71l22 0c7,0 15,3 24,8 9,6 16,8 19,8l180 77 157 65c51,18 77,43 77,76 0,14 -8,36 -22,65l-1272 2164 832 0 86 -876c4,-29 7,-48 9,-59 1,-11 11,-22 30,-33 18,-11 43,-16 76,-16l380 0c73,0 109,38 109,114l0 870 304 0c8,0 18,0 33,0 14,0 24,0 30,0 5,0 13,2 22,5 9,4 14,10 16,19 2,9 4,23 8,41 4,18 5,40 5,65l0 305 0 21c0,11 0,18 0,22 0,4 0,10 -2,19 -2,9 -6,16 -11,19 -6,4 -13,8 -22,14 -9,5 -20,9 -32,11 -13,1 -29,2 -47,2l-304 0z"/>
   <path id="4" class="fil1 str0" d="M6357 2147c0,359 -36,668 -108,927 -73,259 -174,458 -302,595 -129,138 -265,237 -408,297 -143,59 -300,89 -470,89 -170,0 -327,-30 -470,-89 -143,-60 -279,-159 -408,-297 -129,-137 -229,-336 -302,-595 -72,-259 -108,-568 -108,-927 0,-301 27,-567 81,-799 54,-232 123,-416 207,-552 83,-136 184,-247 301,-334 118,-87 233,-146 346,-177 112,-30 230,-46 353,-46 123,0 241,16 353,46 113,31 228,90 345,177 118,87 219,198 302,334 84,136 152,320 207,552 54,232 81,498 81,799zm-1612 1207c86,76 193,114 324,114 130,0 238,-38 323,-114 86,-76 146,-187 182,-332 37,-145 61,-281 74,-410 13,-129 19,-284 19,-465 0,-181 -6,-336 -19,-465 -13,-128 -37,-265 -74,-410 -36,-145 -96,-256 -182,-332 -85,-76 -193,-114 -323,-114 -131,0 -238,38 -324,114 -85,76 -145,187 -182,332 -36,145 -60,282 -73,410 -13,129 -19,284 -19,465 0,181 6,336 19,465 13,129 37,265 73,410 37,145 97,256 182,332z"/>
   <path id="5" class="fil1 str0" d="M8793 3245l0 702c0,36 -8,63 -22,81 -15,18 -26,27 -35,27 -9,0 -27,0 -52,0l-473 0c-36,0 -63,-6 -79,-19 -16,-12 -25,-23 -27,-32 -2,-9 -3,-23 -3,-41l0 -718 -1326 0c-40,0 -69,-7 -87,-21 -18,-15 -27,-26 -27,-33 0,-7 0,-25 0,-54l0 -571 1353 -2256c33,-44 56,-67 71,-71l22 0c7,0 15,3 24,8 9,6 16,8 19,8l180 77 157 65c51,18 76,43 76,76 0,14 -7,36 -21,65l-1272 2164 831 0 87 -876c4,-29 7,-48 8,-59 2,-11 12,-22 30,-33 18,-11 44,-16 76,-16l381 0c72,0 109,38 109,114l0 870 304 0c7,0 18,0 33,0 14,0 24,0 30,0 5,0 12,2 21,5 9,4 15,10 17,19 1,9 4,23 8,41 3,18 5,40 5,65l0 305 0 21c0,11 0,18 0,22 0,4 -1,10 -2,19 -2,9 -6,16 -11,19 -6,4 -13,8 -22,14 -9,5 -20,9 -33,11 -12,1 -28,2 -46,2l-304 0z"/>
  </g>
  <path class="fil3" d="M475 5970l34 60c3,6 5,12 5,16 0,6 -4,12 -13,18 -41,34 -96,51 -167,51 -184,0 -276,-126 -276,-376 0,-64 5,-120 17,-169 12,-49 27,-87 45,-115 19,-28 40,-51 65,-68 25,-18 50,-30 73,-36 23,-6 47,-9 72,-9 67,0 121,18 162,54 13,11 20,21 20,28 0,2 -2,7 -5,14l-40 60c-4,7 -8,11 -12,11 -5,0 -12,-4 -23,-12 -32,-26 -61,-39 -89,-39 -36,0 -65,12 -87,35 -30,31 -46,111 -46,238 0,110 14,184 42,222 23,31 54,46 95,46 28,0 58,-9 88,-27 14,-9 23,-13 26,-13 5,0 10,3 14,11z"/>
  <path id="1" class="fil3" d="M793 5673l0 408c0,7 0,11 -2,13 -2,1 -6,2 -13,2l-106 0c-6,0 -11,-1 -12,-2 -2,-2 -3,-6 -3,-13l0 -408 -122 0c-6,0 -10,-1 -12,-3 -2,-2 -4,-6 -4,-12l0 -77c0,-6 2,-10 4,-12 2,-2 6,-3 12,-3l392 0c10,0 15,2 17,6 1,4 1,9 -1,15l-15 71c-3,10 -9,15 -16,15l-119 0z"/>
  <path id="2" class="fil3" d="M1160 6087l0 196c0,5 0,7 -1,9 0,1 -2,3 -5,5 -2,2 -7,4 -15,6l-98 20c-6,2 -11,2 -14,-1 -3,-2 -4,-8 -4,-20l0 -545c0,-68 -5,-118 -16,-151 -3,-9 -4,-15 -4,-17 0,-5 4,-9 12,-12l81 -26c8,-5 16,-5 22,-3 7,3 13,12 18,26 2,3 3,6 4,9 1,4 2,7 3,11 1,4 2,7 3,9 40,-37 85,-56 134,-56 60,0 106,23 137,67 35,49 52,120 52,213 0,94 -18,166 -54,215 -36,48 -88,73 -154,73 -32,0 -65,-10 -101,-28zm0 -391l0 291c22,13 48,20 77,20 37,0 63,-15 79,-45 11,-23 17,-69 17,-139 0,-57 -8,-100 -24,-130 -14,-25 -36,-38 -67,-38 -29,0 -56,13 -82,41z"/>
  <path id="3" class="fil3" d="M1955 6077l-87 35c-10,4 -17,0 -23,-10 -9,-19 -15,-36 -18,-52 -22,22 -44,39 -66,49 -21,10 -47,16 -76,16 -48,0 -86,-15 -115,-45 -29,-30 -44,-69 -44,-119 0,-61 22,-108 66,-139 23,-18 56,-30 97,-36 41,-7 80,-10 117,-8l0 -34c0,-28 -4,-47 -12,-58 -12,-14 -31,-21 -58,-21 -27,0 -56,5 -87,15 -8,3 -16,5 -22,8 -7,2 -12,4 -15,5 -4,1 -7,2 -9,3 -3,1 -5,1 -6,1 -5,0 -9,-4 -11,-11l-22 -67c-4,-8 -4,-13 -2,-17 3,-4 11,-9 24,-16 42,-19 97,-29 165,-29 80,0 134,23 161,69 16,27 23,61 23,104l0 208c0,43 6,79 17,106 7,20 11,31 11,32 0,5 -3,9 -8,11zm-149 -103l0 -118c-101,-2 -151,27 -151,86 0,21 7,39 20,52 14,14 31,21 51,21 29,0 55,-14 80,-41z"/>
  <path id="4" class="fil3" d="M2372 5764l0 -176c0,-4 0,-7 0,-8 0,-2 2,-4 5,-6 3,-2 8,-4 15,-5l99 -21c11,-2 17,2 17,13l0 520c0,7 -1,11 -3,13 -1,1 -6,2 -12,2l-106 0c-7,0 -11,-1 -13,-2 -2,-2 -2,-6 -2,-13l0 -209 -155 0 0 209c0,7 -1,11 -3,13 -2,1 -6,2 -12,2l-107 0c-5,0 -9,-1 -11,-3 -3,-2 -4,-6 -4,-12l0 -493c0,-8 3,-13 8,-15 4,-2 13,-5 27,-7l85 -18c11,-2 17,2 17,13l0 203 155 0z"/>
  <path id="5" class="fil3" d="M2658 6081l0 -493c0,-4 1,-7 1,-8 0,-2 2,-4 5,-6 3,-2 8,-4 15,-5l99 -21c11,-2 17,2 17,13l0 224c0,33 -2,71 -6,116l5 0c20,-44 42,-88 67,-131l105 -182c2,-3 4,-6 6,-9 2,-2 4,-4 5,-6 1,-1 3,-2 5,-3 3,-1 4,-1 5,-2 1,0 3,-1 7,-1 4,-1 7,-1 8,-1l86 -18c12,-2 17,2 17,13l0 520c0,7 -1,11 -2,13 -2,1 -6,2 -13,2l-106 0c-7,0 -11,-1 -12,-2 -2,-2 -3,-6 -3,-13l0 -204c0,-17 2,-56 5,-116l-4 0c-12,25 -34,69 -68,131l-102 189c-5,9 -9,14 -13,14 -2,1 -4,1 -7,1l-107 0c-6,0 -10,-1 -12,-2 -2,-2 -3,-6 -3,-13z"/>
  <path id="6" class="fil3" d="M3256 6081l0 -493c0,-7 1,-12 4,-14 3,-2 14,-5 32,-8l83 -18c11,-2 17,2 17,13l0 428 138 0 0 -401c0,-4 0,-7 0,-8 1,-2 2,-4 5,-6 3,-2 8,-4 15,-5l99 -21c11,-2 17,2 17,13l0 428 52 0c0,0 1,0 2,0 3,0 5,0 6,0 2,1 3,2 5,4 1,2 2,6 2,11l0 228c0,6 -1,10 -3,12 -2,2 -6,3 -12,3l-101 0c-6,0 -10,-1 -12,-4 -2,-2 -3,-6 -3,-11l0 -136 -331 0c-7,0 -11,-1 -13,-2 -1,-2 -2,-6 -2,-13z"/>
  <path id="7" class="fil3" d="M4220 6077l-87 35c-9,4 -16,0 -22,-10 -9,-19 -16,-36 -18,-52 -23,22 -44,39 -66,49 -21,10 -47,16 -76,16 -48,0 -87,-15 -116,-45 -29,-30 -43,-69 -43,-119 0,-61 22,-108 65,-139 24,-18 56,-30 98,-36 41,-7 80,-10 117,-8l0 -34c0,-28 -4,-47 -13,-58 -11,-14 -31,-21 -58,-21 -26,0 -55,5 -87,15 -8,3 -15,5 -22,8 -7,2 -12,4 -15,5 -3,1 -6,2 -8,3 -3,1 -5,1 -6,1 -5,0 -9,-4 -11,-11l-23 -67c-3,-8 -4,-13 -1,-17 2,-4 10,-9 24,-16 41,-19 96,-29 164,-29 80,0 134,23 161,69 16,27 24,61 24,104l0 208c0,43 5,79 16,106 8,20 12,31 12,32 0,5 -3,9 -9,11zm-148 -103l0 -118c-101,-2 -151,27 -151,86 0,21 6,39 20,52 14,14 31,21 51,21 28,0 55,-14 80,-41z"/>
  <path id="8" class="fil3" d="M4888 5764l0 -176c0,-4 0,-7 0,-8 0,-2 2,-4 5,-6 3,-2 8,-4 15,-5l99 -21c11,-2 17,2 17,13l0 520c0,7 -1,11 -3,13 -2,1 -6,2 -12,2l-106 0c-7,0 -11,-1 -13,-2 -2,-2 -2,-6 -2,-13l0 -209 -155 0 0 209c0,7 -1,11 -3,13 -2,1 -6,2 -12,2l-107 0c-5,0 -9,-1 -11,-3 -3,-2 -4,-6 -4,-12l0 -493c0,-8 3,-13 8,-15 4,-2 13,-5 27,-7l85 -18c11,-2 17,2 17,13l0 203 155 0z"/>
  <path id="9" class="fil3" d="M5569 5867l-289 0c0,90 39,135 118,135 36,0 72,-8 107,-25 15,-7 24,-11 29,-11 6,0 10,3 12,9l27 63c2,5 3,8 3,10 0,9 -6,16 -17,24 -42,28 -99,43 -171,43 -44,0 -81,-8 -113,-22 -32,-14 -56,-31 -73,-51 -16,-20 -29,-43 -38,-71 -10,-27 -15,-50 -18,-69 -2,-18 -3,-37 -3,-57 0,-87 21,-159 63,-214 42,-56 99,-84 172,-84 109,0 177,58 204,173 7,33 11,71 11,113 0,15 -2,25 -6,29 -4,4 -10,5 -18,5zm-289 -99l168 0c1,-22 0,-40 -4,-55 -9,-44 -34,-66 -73,-66 -54,0 -84,40 -91,121z"/>
  <path id="10" class="fil3" d="M6253 5764l0 -176c0,-4 0,-7 0,-8 1,-2 2,-4 5,-6 3,-2 8,-4 15,-5l99 -21c12,-2 17,2 17,13l0 520c0,7 -1,11 -2,13 -2,1 -6,2 -13,2l-106 0c-6,0 -11,-1 -12,-2 -2,-2 -3,-6 -3,-13l0 -209 -155 0 0 209c0,7 -1,11 -2,13 -2,1 -6,2 -13,2l-106 0c-6,0 -10,-1 -12,-3 -2,-2 -3,-6 -3,-12l0 -493c0,-8 2,-13 7,-15 5,-2 14,-5 27,-7l85 -18c12,-2 17,2 17,13l0 203 155 0z"/>
  <path id="11" class="fil3" d="M6931 6077l-87 35c-10,4 -17,0 -23,-10 -9,-19 -15,-36 -18,-52 -22,22 -44,39 -66,49 -21,10 -46,16 -76,16 -48,0 -86,-15 -115,-45 -29,-30 -44,-69 -44,-119 0,-61 22,-108 66,-139 23,-18 56,-30 97,-36 41,-7 80,-10 118,-8l0 -34c0,-28 -5,-47 -13,-58 -12,-14 -31,-21 -58,-21 -27,0 -56,5 -87,15 -8,3 -16,5 -22,8 -7,2 -12,4 -15,5 -4,1 -7,2 -9,3 -3,1 -5,1 -6,1 -5,0 -9,-4 -11,-11l-22 -67c-4,-8 -4,-13 -2,-17 3,-4 11,-9 24,-16 42,-19 97,-29 165,-29 80,0 134,23 161,69 16,27 23,61 23,104l0 208c0,43 6,79 17,106 7,20 11,31 11,32 0,5 -2,9 -8,11zm-148 -103l0 -118c-101,-2 -152,27 -152,86 0,21 7,39 20,52 14,14 31,21 51,21 29,0 55,-14 81,-41z"/>
  <path id="12" class="fil3" d="M7056 6081l0 -493c0,-4 1,-7 1,-8 0,-2 2,-4 5,-6 3,-2 8,-4 15,-5l99 -21c11,-2 17,2 17,13l0 224c0,33 -2,71 -5,116l4 0c20,-44 42,-88 68,-131l104 -182c2,-3 4,-6 6,-9 2,-2 4,-4 5,-6 1,-1 3,-2 5,-3 3,-1 5,-1 5,-2 1,0 3,-1 7,-1 4,-1 7,-1 8,-1l86 -18c12,-2 17,2 17,13l0 520c0,7 -1,11 -2,13 -2,1 -6,2 -13,2l-106 0c-6,0 -11,-1 -12,-2 -2,-2 -3,-6 -3,-13l0 -204c0,-17 2,-56 5,-116l-4 0c-11,25 -34,69 -68,131l-102 189c-5,9 -9,14 -13,14 -2,1 -4,1 -7,1l-106 0c-7,0 -11,-1 -13,-2 -2,-2 -3,-6 -3,-13zm305 -759l62 8c6,2 9,8 9,18 0,20 -6,41 -19,63 -28,46 -73,69 -133,69 -60,0 -105,-23 -133,-69 -13,-22 -20,-43 -20,-63 0,-10 4,-16 10,-18l62 -8c9,-2 15,-1 18,2 1,1 4,9 7,21 9,31 27,47 56,47 29,0 47,-16 56,-47 3,-12 6,-20 7,-21 3,-3 9,-4 18,-2z"/>
  <path id="13" class="fil3" d="M8063 5581l0 408 52 0c0,0 1,0 2,0 3,0 5,0 6,0 2,1 3,2 5,4 1,2 2,6 2,11l0 228c0,6 -1,10 -3,12 -2,2 -6,3 -12,3l-101 0c-6,0 -10,-1 -12,-4 -2,-2 -3,-6 -3,-11l0 -136 -273 0 0 136c0,6 -1,10 -3,12 -2,2 -6,3 -12,3l-101 0c-6,0 -10,-1 -12,-4 -2,-2 -3,-6 -3,-11l0 -228c0,-7 1,-12 3,-13 2,-1 5,-2 10,-2 0,0 1,0 2,0l34 0c29,-53 47,-105 54,-156 7,-51 11,-119 11,-204l0 -48c0,-1 0,-2 0,-2 0,-3 0,-6 0,-7 0,-1 2,-3 4,-4 2,-2 6,-2 11,-2l324 0c10,0 15,5 15,15zm-136 408l0 -316 -97 0 0 34c0,111 -18,205 -55,282l152 0z"/>
  <path id="14" class="fil3" d="M8623 5867l-289 0c0,90 39,135 118,135 37,0 72,-8 107,-25 15,-7 24,-11 29,-11 6,0 10,3 12,9l27 63c2,5 3,8 3,10 0,9 -5,16 -17,24 -42,28 -99,43 -171,43 -43,0 -81,-8 -113,-22 -32,-14 -56,-31 -73,-51 -16,-20 -29,-43 -38,-71 -10,-27 -15,-50 -17,-69 -3,-18 -4,-37 -4,-57 0,-87 21,-159 63,-214 42,-56 100,-84 173,-84 109,0 176,58 203,173 8,33 12,71 12,113 0,15 -2,25 -6,29 -4,4 -11,5 -19,5zm-289 -99l168 0c1,-22 0,-40 -4,-55 -9,-44 -33,-66 -73,-66 -54,0 -84,40 -91,121z"/>
  <path id="15" class="fil3" d="M9057 5764l0 -176c0,-4 0,-7 0,-8 1,-2 2,-4 5,-6 3,-2 8,-4 15,-5l99 -21c12,-2 17,2 17,13l0 520c0,7 -1,11 -2,13 -2,1 -6,2 -13,2l-106 0c-7,0 -11,-1 -13,-2 -1,-2 -2,-6 -2,-13l0 -209 -155 0 0 209c0,7 -1,11 -3,13 -1,1 -5,2 -12,2l-106 0c-6,0 -10,-1 -12,-3 -2,-2 -3,-6 -3,-12l0 -493c0,-8 2,-13 7,-15 4,-2 13,-5 27,-7l85 -18c11,-2 17,2 17,13l0 203 155 0z"/>
  <path id="16" class="fil3" d="M9735 6077l-87 35c-10,4 -17,0 -23,-10 -9,-19 -15,-36 -18,-52 -22,22 -44,39 -66,49 -21,10 -47,16 -76,16 -48,0 -86,-15 -115,-45 -29,-30 -44,-69 -44,-119 0,-61 22,-108 66,-139 23,-18 56,-30 97,-36 41,-7 80,-10 117,-8l0 -34c0,-28 -4,-47 -12,-58 -12,-14 -31,-21 -58,-21 -27,0 -56,5 -87,15 -8,3 -16,5 -23,8 -6,2 -11,4 -15,5 -3,1 -6,2 -8,3 -3,1 -5,1 -6,1 -5,0 -9,-4 -11,-11l-22 -67c-4,-8 -4,-13 -2,-17 3,-4 11,-9 24,-16 42,-19 97,-29 165,-29 80,0 133,23 161,69 15,27 23,61 23,104l0 208c0,43 6,79 16,106 8,20 12,31 12,32 0,5 -3,9 -8,11zm-149 -103l0 -118c-101,-2 -151,27 -151,86 0,21 7,39 20,52 14,14 31,21 51,21 28,0 55,-14 80,-41z"/>
  <rect class="fil4 str1" x="62" y="6359" width="4616" height="50.28" rx="153" ry="25"/>
  <rect class="fil4 str1" x="5098" y="6359" width="4592.14" height="50.28" rx="152" ry="25"/>
  <circle class="fil4 str1" cx="4890" cy="6387" r="68"/>
  <rect class="fil4 str2" x="66" y="5110" width="4614.1" height="50.28" rx="153" ry="25"/>
  <rect class="fil4 str2" x="5102" y="5110" width="4598.82" height="50.28" rx="152" ry="25"/>
  <circle class="fil4 str1" cx="4891" cy="5133" r="68"/>
 </g>
</svg>
