<svg width="173" height="54" xmlns="http://www.w3.org/2000/svg"><g fill="none" fill-rule="evenodd"><rect fill="#292666" width="173" height="54" rx="27"/><path d="M61.11 20.88l.457-1.307h1.81a537890.101 537890.101 0 00.389 1.11l.069.197h.596l-1.678-4.566h-.561l-1.679 4.566h.596zm2.1-1.79h-1.476l.073-.207.178-.509.211-.607a127.896 127.896 0 01.251-.716h.05l.713 2.038zm3.117 1.79l.127-.345a1265.124 1265.124 0 001.131-3.066h-.58l-.93 2.81h-.051l-.93-2.81h-.581l1.258 3.411h.556zm2.895.06c.227 0 .431-.048.612-.145a1.12 1.12 0 00.435-.418h.05v.503h.518v-2.335c0-.354-.112-.632-.336-.834-.224-.201-.543-.302-.957-.302-.362 0-.666.083-.912.248a.912.912 0 00-.423.66h.55a.505.505 0 01.258-.313c.135-.074.304-.11.508-.11.254 0 .446.055.576.167.129.112.194.273.194.484v.31l-.982.06c-.826.049-1.24.385-1.24 1.01 0 .312.11.559.327.741.218.183.492.274.822.274zm.1-.478a.802.802 0 01-.491-.145.476.476 0 01-.196-.405c0-.338.248-.523.745-.557l.915-.06v.313a.782.782 0 01-.277.61 1.009 1.009 0 01-.695.244zm2.896-3.651a.362.362 0 00.268-.112.368.368 0 00.11-.268.367.367 0 00-.11-.269.365.365 0 00-.268-.11.365.365 0 00-.268.11.367.367 0 00-.11.27.37.37 0 00.11.267.362.362 0 00.268.112zm.268 4.069v-3.41h-.542v3.41h.542zm1.7 0v-4.765h-.542v4.765h.542zm2.091.06c.227 0 .431-.048.612-.145a1.12 1.12 0 00.435-.418h.05v.503h.518v-2.335c0-.354-.112-.632-.336-.834-.224-.201-.543-.302-.957-.302-.362 0-.666.083-.912.248a.912.912 0 00-.423.66h.55a.505.505 0 01.258-.313c.135-.074.304-.11.508-.11.254 0 .446.055.576.167.129.112.194.273.194.484v.31l-.981.06c-.827.049-1.24.385-1.24 1.01 0 .312.109.559.326.741.218.183.492.274.822.274zm.101-.478a.802.802 0 01-.492-.145.476.476 0 01-.196-.405c0-.338.248-.523.745-.557l.915-.06v.313a.782.782 0 01-.276.61 1.009 1.009 0 01-.696.244zm4.3.478c.43 0 .776-.16 1.035-.482.26-.322.39-.75.39-1.283 0-.536-.13-.964-.388-1.285-.259-.32-.605-.481-1.038-.481-.233 0-.446.054-.639.161a1.023 1.023 0 00-.427.437h-.05v-1.892h-.543v4.765h.517v-.544h.05c.108.19.258.338.45.444.193.107.407.16.642.16zm-.127-.49a.884.884 0 01-.733-.342c-.18-.228-.27-.539-.27-.933 0-.395.09-.706.27-.934a.884.884 0 01.733-.342c.311 0 .554.113.729.339.174.226.262.538.262.937 0 .398-.088.71-.262.936-.175.226-.418.339-.729.339zm3.069.43v-4.765h-.543v4.765h.543zm2.507.06c.372 0 .685-.084.937-.253.252-.169.418-.399.495-.69h-.542a.745.745 0 01-.328.344 1.15 1.15 0 01-.55.118.884.884 0 01-.695-.297c-.175-.199-.27-.466-.285-.804v-.025h2.445v-.21c0-.529-.132-.947-.395-1.254-.263-.307-.623-.46-1.082-.46-.467 0-.839.16-1.117.483-.277.321-.416.75-.416 1.286 0 .54.138.968.413 1.286.276.317.65.476 1.12.476zm.906-2.047h-1.874c.02-.302.119-.544.293-.728a.883.883 0 01.669-.275.84.84 0 01.653.275c.166.184.252.426.259.728zm4.825 2.047c.484 0 .866-.158 1.147-.473.28-.315.42-.746.42-1.292 0-.549-.14-.98-.42-1.295-.281-.314-.663-.471-1.147-.471s-.866.157-1.147.471c-.28.315-.42.746-.42 1.295 0 .546.14.977.42 1.292.281.315.663.473 1.147.473zm0-.49c-.322 0-.57-.112-.745-.336-.174-.223-.261-.537-.261-.94 0-.404.087-.718.261-.94.175-.223.423-.335.745-.335s.57.112.744.334c.175.223.262.537.262.942 0 .402-.087.716-.262.94-.174.223-.422.335-.744.335zm3.053.43v-2.019c0-.3.081-.534.243-.705.162-.171.378-.257.65-.257.271 0 .472.074.604.222.131.148.197.375.197.683v2.076h.543v-2.209c0-.405-.103-.716-.308-.934-.205-.219-.499-.328-.882-.328-.26 0-.474.053-.642.158a1 1 0 00-.38.44h-.05v-.538h-.518v3.411h.543zm6.44.025a1.611 1.611 0 00.32-.031v-.46a2.095 2.095 0 01-.252.013c-.178 0-.306-.045-.386-.136-.08-.09-.12-.236-.12-.436v-1.93h.757v-.456h-.757v-.883h-.543v.883h-.548v.456h.548v2.07c0 .324.077.557.23.698.152.142.402.212.752.212zm1.804-.025v-2.019c0-.289.081-.521.243-.697.162-.176.396-.265.7-.265.257 0 .452.076.586.227.133.15.2.377.2.678v2.076h.543v-2.209c0-.4-.106-.71-.317-.931-.212-.22-.497-.331-.857-.331-.26 0-.479.053-.654.158a.977.977 0 00-.393.44h-.05v-1.892h-.543v4.765h.542zm4.716.06c.372 0 .685-.084.937-.253.252-.169.417-.399.495-.69h-.542a.745.745 0 01-.329.344 1.15 1.15 0 01-.548.118.885.885 0 01-.696-.297c-.176-.199-.27-.466-.285-.804v-.025h2.444v-.21c0-.529-.131-.947-.394-1.254-.263-.307-.624-.46-1.082-.46-.467 0-.84.16-1.117.483-.277.321-.416.75-.416 1.286 0 .54.138.968.413 1.286.276.317.649.476 1.12.476zm.905-2.047h-1.873c.02-.302.118-.544.293-.728a.883.883 0 01.669-.275.84.84 0 01.653.275c.166.184.252.426.258.728zM61.772 36.72l1.003-2.866h3.971a2586808.669 2586808.669 0 001.003 2.866h1.308l-3.68-10.013h-1.232l-3.68 10.013h1.307zm4.608-3.927h-3.238l.163-.462a1044.41 1044.41 0 00.875-2.501l.398-1.142.162-.461h.042l1.598 4.566zm5.512 6.335v-3.58h.028c.216.393.523.707.92.943.396.236.853.354 1.37.354.908 0 1.644-.34 2.206-1.02.563-.68.844-1.584.844-2.713 0-1.133-.283-2.039-.85-2.717-.568-.677-1.31-1.016-2.228-1.016a2.61 2.61 0 00-1.387.368 2.558 2.558 0 00-.938.978h-.027v-1.221h-1.142v9.624h1.204zm2.055-3.345c-.614 0-1.11-.244-1.491-.732-.38-.488-.57-1.134-.57-1.94 0-.8.19-1.445.57-1.935.38-.49.877-.736 1.49-.736.642 0 1.149.242 1.523.726.373.483.56 1.132.56 1.946 0 .819-.187 1.469-.56 1.95-.374.48-.881.721-1.522.721zm6.404 3.345v-3.58h.028c.217.393.524.707.92.943.397.236.853.354 1.37.354.908 0 1.644-.34 2.207-1.02.562-.68.844-1.584.844-2.713 0-1.133-.284-2.039-.851-2.717-.567-.677-1.31-1.016-2.228-1.016-.52 0-.983.122-1.387.368a2.558 2.558 0 00-.937.978h-.028v-1.221h-1.141v9.624h1.203zm2.055-3.345c-.613 0-1.11-.244-1.49-.732-.381-.488-.571-1.134-.571-1.94 0-.8.19-1.445.57-1.935.38-.49.878-.736 1.491-.736.641 0 1.148.242 1.522.726.374.483.56 1.132.56 1.946 0 .819-.186 1.469-.56 1.95-.374.48-.88.721-1.522.721zm6.467.937V26.707H87.67V36.72h1.204zm5.263.125c.784 0 1.454-.208 2.01-.625.556-.416.884-.939.986-1.568h-1.183a1.5 1.5 0 01-.626.826c-.316.213-.702.32-1.159.32-.646 0-1.157-.21-1.536-.629-.378-.418-.567-.972-.567-1.662v-.069h5.16v-.458c0-1.092-.28-1.965-.84-2.62-.56-.654-1.327-.981-2.3-.981-.991 0-1.782.347-2.373 1.04-.59.695-.885 1.601-.885 2.72 0 1.134.295 2.035.885 2.703.59.669 1.4 1.003 2.428 1.003zm1.84-4.35h-3.908c.037-.602.237-1.097.602-1.486.364-.388.828-.582 1.39-.582.568 0 1.025.193 1.374.579.348.386.529.882.543 1.488zm10.168 4.392c1.116 0 2.01-.271 2.68-.812.671-.542 1.007-1.275 1.007-2.2 0-.708-.224-1.279-.671-1.714-.448-.435-1.192-.765-2.235-.992l-1.107-.243c-.682-.148-1.169-.358-1.46-.631a1.319 1.319 0 01-.435-1c0-.508.212-.907.636-1.196.425-.29.948-.434 1.57-.434.651 0 1.18.157 1.585.472.406.314.636.747.692 1.297h1.245c-.028-.85-.367-1.546-1.017-2.085-.65-.539-1.474-.808-2.47-.808-1.033 0-1.878.261-2.535.784-.657.523-.986 1.198-.986 2.026 0 .712.227 1.298.681 1.756.455.458 1.182.795 2.183 1.013l1.107.242c.692.153 1.188.37 1.487.65.3.28.45.63.45 1.05 0 .49-.22.897-.66 1.218-.441.322-1 .482-1.678.482-.715 0-1.304-.153-1.768-.461-.463-.308-.732-.73-.806-1.266h-1.245c.06.865.428 1.556 1.103 2.074.676.518 1.558.778 2.647.778zm7.857-.111c.143 0 .287-.005.432-.014.146-.01.255-.023.33-.042v-1.013a9.92 9.92 0 01-.23.02c-.11.01-.2.015-.269.015-.309 0-.535-.078-.678-.233-.143-.155-.214-.396-.214-.725v-4.288h1.397v-.992h-1.397v-1.742h-1.204v1.742h-1.072v.992h1.072v4.35c0 .694.14 1.19.422 1.485.281.296.752.445 1.411.445zm5.492.069c.991 0 1.794-.335 2.407-1.006.614-.671.92-1.58.92-2.727 0-1.152-.306-2.062-.92-2.73-.613-.669-1.416-1.003-2.407-1.003-.996 0-1.801.334-2.415 1.002-.613.669-.92 1.579-.92 2.73 0 1.148.307 2.057.92 2.728.614.67 1.419 1.006 2.415 1.006zm0-1.062c-.637 0-1.147-.232-1.533-.697-.385-.465-.577-1.123-.577-1.974s.192-1.51.577-1.974c.386-.465.896-.698 1.533-.698.636 0 1.146.233 1.529.698.382.465.574 1.123.574 1.974s-.192 1.509-.574 1.974c-.383.465-.893.697-1.53.697zm6.418.937v-4.496c0-.51.141-.919.422-1.228.282-.31.655-.465 1.121-.465.148 0 .28.007.398.02.117.014.2.03.245.049v-1.173a3.379 3.379 0 00-.197-.03 2.152 2.152 0 00-.287-.018c-.904 0-1.485.435-1.743 1.304h-.028v-1.18h-1.134v7.217h1.203zm6.454.125c.784 0 1.454-.208 2.01-.625.555-.416.884-.939.985-1.568h-1.183c-.101.338-.31.613-.626.826-.316.213-.702.32-1.159.32-.645 0-1.157-.21-1.536-.629-.378-.418-.567-.972-.567-1.662v-.069h5.161v-.458c0-1.092-.28-1.965-.84-2.62-.56-.654-1.328-.981-2.3-.981-.992 0-1.783.347-2.374 1.04-.59.695-.885 1.601-.885 2.72 0 1.134.295 2.035.885 2.703.59.669 1.4 1.003 2.429 1.003zm1.84-4.35h-3.909c.037-.602.238-1.097.602-1.486.364-.388.828-.582 1.39-.582.568 0 1.026.193 1.374.579.348.386.529.882.543 1.488z" fill="#FFF" fill-rule="nonzero"/><path d="M31.906 47.605c11.356 0 20.561-9.225 20.561-20.605S43.262 6.395 31.906 6.395 11.344 15.62 11.344 27s9.206 20.605 20.562 20.605z" stroke="#FFF" opacity=".703"/><path d="M40.414 30.293c-.33 1.104-.853 2.207-1.565 3.31-1.095 1.73-2.185 2.594-3.27 2.594-.416 0-1.01-.141-1.782-.423-.73-.283-1.37-.424-1.921-.424-.518 0-1.12.146-1.807.437-.687.3-1.247.45-1.68.45-1.29 0-2.566-1.143-3.83-3.429-1.247-2.303-1.87-4.522-1.87-6.658 0-2.012.479-3.662 1.437-4.95.95-1.271 2.155-1.906 3.614-1.906.611 0 1.362.132 2.252.397.883.264 1.468.397 1.756.397.382 0 .989-.15 1.82-.45.865-.3 1.6-.45 2.201-.45a4.52 4.52 0 012.71.86c.442.318.883.759 1.324 1.324-.67.591-1.154 1.112-1.45 1.562a4.846 4.846 0 00-.828 2.74c0 1.094.293 2.078.878 2.952.586.873 1.256 1.43 2.01 1.667zm-4.785-15.527c0 .539-.123 1.139-.369 1.8a5.45 5.45 0 01-1.183 1.827c-.458.477-.916.795-1.374.953-.314.098-.755.173-1.324.225.026-1.314.357-2.448.993-3.401.628-.945 1.688-1.598 3.181-1.96.009.027.02.076.032.146.013.07.023.12.032.146 0 .035.002.08.006.132.004.053.006.097.006.132z" fill="#FFF"/></g></svg>