<svg width="173" height="54" xmlns="http://www.w3.org/2000/svg" xmlns:xlink="http://www.w3.org/1999/xlink"><defs><linearGradient x1="19.215%" y1="1.01%" x2="69.302%" y2="75.046%" id="a"><stop stop-color="#19A3B4" offset="0%"/><stop stop-color="#5BC3AF" offset="34.817%"/><stop stop-color="#C8F7A6" offset="92.234%"/><stop stop-color="#D7FEA5" offset="100%"/></linearGradient><linearGradient x1="-14.698%" y1="-51.037%" x2="74.844%" y2="89.448%" id="c"><stop stop-color="#FC227C" offset="0%"/><stop stop-color="#FEEB7B" offset="100%"/></linearGradient><linearGradient x1="43.764%" y1="-14.814%" x2="49.483%" y2="82.894%" id="d"><stop stop-color="#0E4DA0" offset="0%"/><stop stop-color="#6BFED4" offset="100%"/></linearGradient><linearGradient x1="132.245%" y1="30.709%" x2="5.959%" y2="93.899%" id="f"><stop stop-color="#FC472E" offset="0%"/><stop stop-color="#FC472F" offset=".332%"/><stop stop-color="#893CD8" offset="100%"/></linearGradient><path d="M14.957 7.33L1.926.22c-.37-.201-.71-.248-.987-.163L11.613 10.65l3.344-3.32" id="b"/><path d="M.939.057C.542.18.286.58.286 1.181l.002 18.96c0 .597.249.989.633 1.12l10.692-10.61L.939.056" id="e"/><path d="M.921 21.26c.278.094.626.05 1.005-.156l13.046-7.12-3.359-3.334L.921 21.26" id="g"/></defs><g fill="none" fill-rule="evenodd"><rect fill="#292666" width="173" height="54" rx="27"/><path d="M61.11 21.24l.457-1.307h1.81a537890.101 537890.101 0 00.389 1.11l.069.197h.596l-1.678-4.566h-.561l-1.679 4.566h.596zm2.1-1.79h-1.476l.073-.207.178-.509.211-.607a127.896 127.896 0 01.251-.716h.05l.713 2.038zm2.583 1.79v-2.019c0-.3.081-.534.243-.705.162-.171.379-.257.65-.257.272 0 .473.074.604.222.132.148.197.375.197.683v2.076h.543v-2.209c0-.405-.102-.716-.307-.934-.206-.219-.5-.328-.882-.328-.261 0-.475.053-.642.158a1 1 0 00-.38.44h-.05v-.538h-.518v3.411h.542zm4.577.06c.236 0 .45-.053.64-.16.192-.106.341-.254.449-.444h.05v.544h.517v-4.765h-.542v1.892h-.048a1.043 1.043 0 00-.427-.44 1.284 1.284 0 00-.639-.158c-.43 0-.777.16-1.038.481-.26.32-.39.749-.39 1.285 0 .535.129.964.387 1.284.259.32.606.481 1.041.481zm.126-.49c-.31 0-.554-.113-.73-.339-.175-.226-.263-.538-.263-.936 0-.397.088-.709.265-.935.176-.227.42-.34.728-.34.307 0 .55.114.73.344.18.23.27.54.27.93 0 .395-.089.706-.268.934a.88.88 0 01-.732.342zm3.218.43v-2.114c0-.24.084-.438.252-.594a.905.905 0 01.64-.235 2.155 2.155 0 01.347.032v-.544a2.09 2.09 0 00-.271-.016 1.16 1.16 0 00-.603.158.717.717 0 00-.34.408h-.05v-.506h-.518v3.411h.543zm3.311.06c.484 0 .866-.158 1.147-.473.28-.315.421-.746.421-1.292 0-.549-.14-.98-.421-1.295-.28-.314-.663-.471-1.147-.471-.483 0-.866.157-1.146.471-.281.315-.422.746-.422 1.295 0 .546.14.977.422 1.292.28.315.663.473 1.146.473zm0-.49c-.321 0-.57-.112-.744-.336-.175-.223-.262-.537-.262-.94 0-.404.087-.718.262-.94.174-.223.423-.335.744-.335.322 0 .57.112.745.334.174.223.262.537.262.942 0 .402-.088.716-.262.94-.175.223-.423.335-.745.335zm2.798-3.639a.362.362 0 00.268-.112.368.368 0 00.11-.268.367.367 0 00-.11-.269.365.365 0 00-.268-.11.365.365 0 00-.268.11.367.367 0 00-.11.27c0 .103.036.192.11.267a.362.362 0 00.268.112zm.268 4.069v-3.41h-.543v3.41h.543zm2.384.06c.236 0 .45-.053.64-.16.192-.106.341-.254.449-.444h.05v.544h.517v-4.765h-.542v1.892h-.047a1.043 1.043 0 00-.428-.44 1.284 1.284 0 00-.639-.158c-.43 0-.777.16-1.038.481-.26.32-.39.749-.39 1.285 0 .535.129.964.387 1.284.259.32.606.481 1.041.481zm.126-.49c-.31 0-.554-.113-.73-.339-.175-.226-.263-.538-.263-.936 0-.397.088-.709.265-.935.176-.227.42-.34.728-.34s.55.114.73.344c.18.23.27.54.27.93 0 .395-.089.706-.268.934a.88.88 0 01-.732.342zm4.892.43l.458-1.307h1.81a994800.068 994800.068 0 00.388 1.11l.07.197h.596l-1.678-4.566h-.562l-1.678 4.566h.596zm2.101-1.79h-1.476l.072-.207.179-.509.21-.607c.071-.203.13-.373.18-.51l.072-.206h.05l.713 2.038zm2.583 2.93v-1.653h.05c.093.18.233.32.42.421.187.101.402.152.644.152.433 0 .78-.16 1.04-.482.259-.322.389-.75.389-1.283 0-.536-.13-.964-.39-1.285-.26-.32-.606-.481-1.04-.481-.23 0-.443.056-.635.168a1.2 1.2 0 00-.453.462h-.05v-.57h-.517v4.55h.542zm.984-1.57a.88.88 0 01-.728-.345c-.181-.23-.272-.54-.272-.93 0-.393.09-.703.272-.932a.884.884 0 01.731-.344c.312 0 .555.113.73.339.176.226.264.538.264.937 0 .398-.088.71-.263.936-.176.226-.42.339-.734.339zm3.044 1.57v-1.653h.05c.093.18.233.32.42.421.187.101.402.152.644.152.433 0 .78-.16 1.039-.482.26-.322.39-.75.39-1.283 0-.536-.13-.964-.39-1.285-.26-.32-.606-.481-1.04-.481-.23 0-.443.056-.635.168a1.2 1.2 0 00-.453.462h-.05v-.57h-.518v4.55h.543zm.984-1.57a.88.88 0 01-.729-.345c-.18-.23-.27-.54-.27-.93 0-.393.09-.703.27-.932a.884.884 0 01.732-.344c.312 0 .555.113.73.339.176.226.264.538.264.937 0 .398-.088.71-.263.936-.176.226-.42.339-.734.339zm5.813.49c.484 0 .866-.158 1.147-.473.28-.315.42-.746.42-1.292 0-.549-.14-.98-.42-1.295-.281-.314-.663-.471-1.147-.471s-.866.157-1.147.471c-.28.315-.42.746-.42 1.295 0 .546.14.977.42 1.292.281.315.663.473 1.147.473zm0-.49c-.322 0-.57-.112-.745-.336-.174-.223-.261-.537-.261-.94 0-.404.087-.718.261-.94.175-.223.423-.335.745-.335s.57.112.744.334c.175.223.262.537.262.942 0 .402-.087.716-.262.94-.174.223-.422.335-.744.335zm3.053.43v-2.019c0-.3.081-.534.243-.705.162-.171.378-.257.65-.257.271 0 .472.074.604.222.131.148.197.375.197.683v2.076h.543v-2.209c0-.405-.103-.716-.308-.934-.205-.219-.499-.328-.882-.328-.26 0-.474.053-.642.158a1 1 0 00-.38.44h-.05v-.538h-.518v3.411h.543zM64.993 37.232c1.215 0 2.163-.347 2.842-1.041.68-.694 1.019-1.657 1.019-2.889v-.867H65.15v1h2.568v.165c0 .763-.252 1.384-.757 1.863-.505.479-1.16.718-1.968.718-.926 0-1.657-.333-2.196-1-.538-.666-.807-1.573-.807-2.72 0-1.131.266-2.016.798-2.655.532-.64 1.267-.959 2.205-.959.64 0 1.187.169 1.643.506.457.338.78.815.969 1.43h1.192c-.168-.907-.598-1.631-1.29-2.173-.692-.542-1.53-.813-2.514-.813-1.275 0-2.288.422-3.041 1.265-.753.844-1.13 1.979-1.13 3.405 0 1.451.378 2.608 1.133 3.47.755.864 1.768 1.295 3.038 1.295zm9.784 0c1.291 0 2.314-.424 3.066-1.272.753-.848 1.13-1.996 1.13-3.443 0-1.45-.377-2.6-1.13-3.448-.752-.848-1.775-1.272-3.066-1.272s-2.313.424-3.066 1.272c-.753.848-1.13 1.997-1.13 3.448 0 1.447.377 2.595 1.13 3.443.753.848 1.775 1.272 3.066 1.272zm0-1.05c-.93 0-1.667-.33-2.211-.99-.545-.661-.817-1.552-.817-2.675 0-1.126.272-2.02.817-2.68.544-.66 1.282-.99 2.211-.99.93 0 1.667.33 2.212.99.544.66.817 1.554.817 2.68 0 1.123-.273 2.014-.817 2.674-.545.66-1.282.99-2.212.99zm10.081 1.05c1.291 0 2.313-.424 3.066-1.272.753-.848 1.13-1.996 1.13-3.443 0-1.45-.377-2.6-1.13-3.448-.753-.848-1.775-1.272-3.066-1.272s-2.313.424-3.066 1.272c-.753.848-1.13 1.997-1.13 3.448 0 1.447.377 2.595 1.13 3.443.753.848 1.775 1.272 3.066 1.272zm0-1.05c-.93 0-1.667-.33-2.211-.99-.545-.661-.817-1.552-.817-2.675 0-1.126.272-2.02.817-2.68.544-.66 1.282-.99 2.211-.99.93 0 1.667.33 2.211.99.545.66.817 1.554.817 2.68 0 1.123-.272 2.014-.817 2.674-.544.66-1.281.99-2.21.99zm10.056 1.05c1.215 0 2.163-.347 2.842-1.041.68-.694 1.019-1.657 1.019-2.889v-.867h-3.703v1h2.567v.165c0 .763-.252 1.384-.757 1.863-.504.479-1.16.718-1.968.718-.926 0-1.657-.333-2.196-1-.538-.666-.807-1.573-.807-2.72 0-1.131.266-2.016.798-2.655.532-.64 1.267-.959 2.205-.959.64 0 1.187.169 1.643.506.457.338.78.815.969 1.43h1.192c-.168-.907-.598-1.631-1.29-2.173-.692-.542-1.53-.813-2.514-.813-1.275 0-2.288.422-3.041 1.265-.753.844-1.13 1.979-1.13 3.405 0 1.451.378 2.608 1.133 3.47.755.864 1.768 1.295 3.038 1.295zm11.469-.152v-1.025h-4.391v-8.106h-1.136v9.131h5.527zm7.52 0v-1.025h-4.506v-3.139h4.272v-1.012h-4.272v-2.93h4.505v-1.025h-5.64v9.131h5.64zm6.54 0v-3.259h2.1c.854 0 1.556-.274 2.105-.823.548-.548.823-1.255.823-2.12 0-.864-.272-1.569-.817-2.113-.545-.544-1.244-.816-2.098-.816h-3.25v9.131h1.137zm1.817-4.271h-1.817V28.96h1.817c.652 0 1.155.169 1.51.506.356.338.534.808.534 1.411 0 .608-.178 1.081-.533 1.421-.356.34-.86.51-1.511.51zm10.667 4.271v-1.025h-4.39v-8.106H127.4v9.131h5.527zm2.346 0l.915-2.614h3.621a68620.095 68620.095 0 00.776 2.218l.14.396h1.192l-3.357-9.131h-1.123l-3.356 9.131h1.192zm4.202-3.582h-2.953l.149-.42a954.393 954.393 0 00.798-2.282c.143-.413.264-.76.363-1.04l.148-.422h.038l1.457 4.164zm6.617 3.582v-3.93l3.23-5.201h-1.293l-2.486 4.1h-.038l-2.485-4.1h-1.294l3.23 5.201v3.93h1.136z" fill="#FFF" fill-rule="nonzero"/><ellipse stroke="#FFF" opacity=".701" cx="31.906" cy="27" rx="20.561" ry="20.605"/><g transform="translate(23.689 16.56)"><use fill="url(#a)" xlink:href="#b"/><path d="M14.974 13.984l4.448-2.427c.902-.494.902-1.298 0-1.79L14.957 7.33l-3.344 3.319 3.36 3.335" fill="url(#c)"/><use fill="url(#d)" xlink:href="#e"/><use fill="url(#f)" xlink:href="#g"/></g></g></svg>